<svg xmlns="http://www.w3.org/2000/svg" xmlns:xlink="http://www.w3.org/1999/xlink" width="940" zoomAndPan="magnify" viewBox="0 0 705 591.000005" height="788" preserveAspectRatio="xMidYMid meet" version="1.0"><defs><clipPath id="743f6df607"><path d="M 227 59 L 479.015625 59 L 479.015625 530.703125 L 227 530.703125 Z M 227 59 " clip-rule="nonzero"/></clipPath></defs><g clip-path="url(#743f6df607)"><path fill="#ffffff" d="M 425.730469 258.84375 L 425.828125 258.972656 C 425.816406 258.972656 425.761719 258.886719 425.730469 258.84375 Z M 425.152344 258.054688 L 425.730469 258.84375 C 425.582031 258.644531 425.421875 258.417969 425.230469 258.171875 Z M 426.425781 259.796875 L 426.402344 259.761719 Z M 426.402344 259.761719 C 426.308594 259.636719 426.199219 259.484375 426.082031 259.324219 Z M 425.816406 258.972656 L 426.070312 259.324219 L 425.976562 259.199219 Z M 424.589844 257.351562 L 424.523438 257.277344 Z M 323.613281 453.167969 C 321.808594 454.289062 317.402344 462.921875 313.199219 473.464844 C 308.960938 483.984375 304.972656 496.382812 302.730469 503.992188 C 295.816406 493.898438 289.179688 483.953125 283.148438 473.996094 C 264.113281 443.160156 249.976562 410.433594 246.421875 377.066406 C 242.460938 343.859375 250.851562 311.121094 269.992188 286.503906 C 288.527344 261.585938 315.480469 244.429688 343.554688 238.121094 C 371.332031 231.6875 402.03125 236.117188 419.679688 254.4375 C 428.515625 263.414062 433.914062 275.417969 434.160156 286.984375 C 434.339844 298.539062 428.941406 309.445312 420.332031 317.117188 C 411.792969 324.8125 400.644531 329.464844 389.75 330.09375 C 378.746094 330.722656 367.683594 327.585938 358.207031 322.195312 C 338.839844 311.34375 326.6875 292.167969 321.359375 272.441406 C 316.003906 252.570312 316.089844 232.136719 319.171875 213.675781 C 322.320312 195.132812 328.636719 178.3125 336.363281 163.566406 C 343.984375 148.714844 353.351562 136.058594 363.125 125.410156 C 382.546875 103.824219 403.441406 90.207031 421.183594 81.648438 C 457.167969 64.695312 479.0625 65.398438 479.03125 62.644531 C 479.007812 61.234375 477.804688 60.160156 472.167969 59.710938 C 466.566406 59.207031 456.386719 59.1875 439.273438 63.464844 C 422.359375 67.796875 397.914062 76.632812 369.761719 99.234375 C 355.761719 110.523438 341.347656 125.75 328.382812 145.820312 C 315.429688 165.808594 304.695312 191.503906 301 222.203125 C 298.71875 241.269531 299.914062 260.90625 305.386719 279.75 C 310.785156 298.476562 321.597656 316.542969 337.121094 329.132812 C 352.421875 341.734375 372.515625 349.664062 393.355469 347.773438 C 413.992188 345.640625 432.65625 334.371094 443.773438 316.96875 C 449.195312 308.238281 452.394531 297.675781 452.269531 287.367188 C 452.234375 277.050781 449.429688 267.199219 444.9375 258.609375 C 436.125 241.324219 419.871094 228.722656 402.882812 222.886719 C 368.460938 211.199219 333.472656 218.414062 305.578125 232.777344 C 277.515625 247.460938 255.929688 270.199219 242.847656 295.5 C 229.464844 320.9375 225.964844 348.789062 227.917969 372.9375 C 229.914062 397.308594 236.390625 418.753906 244.042969 437 C 251.746094 455.257812 260.410156 470.445312 268.308594 483.089844 C 280.257812 502.019531 284.6875 507.664062 288.367188 512.878906 C 272.894531 512.089844 242.878906 510 237.203125 512.484375 C 257.667969 525.097656 290.597656 528.578125 311.425781 530.667969 C 312.175781 527.371094 323.824219 477.65625 323.613281 453.167969 Z M 323.613281 453.167969 " fill-opacity="1" fill-rule="nonzero"/></g></svg>