<svg xmlns="http://www.w3.org/2000/svg" xmlns:xlink="http://www.w3.org/1999/xlink" width="940" zoomAndPan="magnify" viewBox="0 0 705 591.000005" height="788" preserveAspectRatio="xMidYMid meet" version="1.0"><defs><clipPath id="7bac754aba"><path d="M 116.027344 59 L 587.972656 59 L 587.972656 530.703125 L 116.027344 530.703125 Z M 116.027344 59 " clip-rule="nonzero"/></clipPath></defs><g clip-path="url(#7bac754aba)"><path fill="#3b62ac" d="M 323.625 288.683594 C 323.054688 288.71875 322.503906 288.789062 321.914062 288.859375 L 328.933594 277.835938 C 307.886719 268.902344 287.527344 256.742188 271.484375 243.484375 C 259.648438 232.421875 248.898438 221.574219 234.628906 213.5625 C 206.332031 195.269531 171.914062 174.992188 146.058594 178.574219 C 145.082031 180.949219 148.632812 181.054688 149.851562 182.507812 C 146.648438 182.828125 145.082031 178.503906 142.75 184.457031 C 141.464844 186.941406 145.257812 188.394531 148.632812 190.839844 C 144.421875 189.847656 140.800781 187.792969 138.296875 191.796875 C 136 196.191406 138.75 199.703125 142.054688 201.402344 C 140.140625 202.042969 138.503906 200.554688 136.242188 200.128906 C 133.738281 199.417969 131.613281 203.53125 133.527344 204.984375 C 180.617188 242.457031 195.753906 259.292969 255.925781 258.941406 C 278.894531 263.015625 306.320312 277.410156 321.636719 288.859375 C 299.601562 291.339844 276.773438 290.84375 257.039062 287.371094 C 241.414062 283.648438 226.832031 279.570312 210.511719 279.714844 C 177.03125 277.90625 137.289062 277.375 116.441406 293.433594 C 116.71875 295.984375 119.886719 294.320312 121.695312 294.957031 C 119.015625 296.835938 115.570312 293.824219 116.40625 300.203125 C 116.476562 303.042969 120.480469 302.367188 124.621094 302.828125 C 120.441406 304.070312 116.335938 304.070312 116.09375 308.855469 C 116.199219 313.816406 120.304688 315.484375 123.992188 315.339844 C 122.601562 316.867188 120.441406 316.332031 118.285156 317.148438 C 115.746094 317.824219 115.886719 322.398438 118.285156 322.714844 C 177.34375 331.933594 198.644531 339.023438 250.949219 308.675781 C 272.597656 300.914062 302.804688 299.671875 321.734375 301.871094 C 305.972656 312.859375 279.277344 326.011719 256.902344 329.554688 C 196.730469 328.105469 181.3125 344.625 133.5625 381.207031 C 131.613281 382.628906 133.597656 386.738281 136.140625 386.101562 C 138.4375 385.746094 140.035156 384.257812 141.949219 384.929688 C 138.679688 386.597656 135.828125 390.035156 138.015625 394.464844 C 140.453125 398.578125 144.109375 396.558594 148.355469 395.636719 C 144.910156 398.082031 141.117188 399.429688 142.367188 401.910156 C 144.59375 407.9375 146.230469 403.648438 149.433594 404.003906 C 148.144531 405.382812 144.628906 405.457031 145.535156 407.867188 C 171.394531 411.941406 206.195312 392.375 234.734375 374.542969 C 249.175781 366.816406 260.101562 356.144531 272.144531 345.332031 C 288.429688 332.394531 309 320.625 330.230469 312.078125 L 323.308594 300.734375 L 322.855469 301.054688 Z M 375.320312 277.835938 C 396.382812 268.902344 416.773438 256.742188 432.78125 243.484375 C 444.617188 232.421875 455.375 221.574219 469.671875 213.5625 C 497.929688 195.269531 532.359375 174.992188 558.21875 178.574219 C 559.222656 180.949219 555.644531 181.054688 554.425781 182.507812 C 557.648438 182.828125 559.183594 178.503906 561.523438 184.457031 C 562.800781 186.941406 559.046875 188.394531 555.644531 190.839844 C 559.851562 189.847656 563.507812 187.792969 565.96875 191.796875 C 568.269531 196.191406 565.515625 199.703125 562.210938 201.402344 C 564.160156 202.042969 565.769531 200.554688 568.03125 200.128906 C 570.609375 199.417969 572.652344 203.53125 570.746094 204.984375 C 523.648438 242.457031 508.546875 259.292969 448.335938 258.941406 C 425.367188 263.050781 397.914062 277.410156 382.597656 288.894531 C 404.5625 291.304688 427.332031 290.84375 446.976562 287.371094 C 462.613281 283.648438 477.203125 279.570312 493.523438 279.714844 C 526.992188 277.90625 566.714844 277.375 587.558594 293.433594 C 587.304688 295.984375 584.175781 294.355469 582.328125 294.957031 C 585.003906 296.835938 588.464844 293.824219 587.617188 300.203125 C 587.558594 303.042969 583.546875 302.367188 579.4375 302.828125 C 583.585938 304.070312 587.714844 304.070312 588.011719 308.855469 C 587.894531 313.816406 583.785156 315.484375 580.066406 315.339844 C 581.503906 316.867188 583.585938 316.332031 585.75 317.148438 C 588.285156 317.824219 588.207031 322.398438 585.75 322.714844 C 526.679688 331.933594 505.421875 339.023438 453.074219 308.675781 C 431.601562 300.949219 401.613281 299.671875 382.636719 301.835938 C 398.40625 312.824219 425.132812 326.011719 447.507812 329.554688 C 507.683594 328.105469 523.140625 344.625 570.882812 381.207031 C 572.832031 382.628906 570.804688 386.738281 568.230469 386.101562 C 565.96875 385.746094 564.335938 384.257812 562.429688 384.929688 C 565.769531 386.597656 568.542969 390.035156 566.359375 394.464844 C 563.960938 398.578125 560.265625 396.558594 556.015625 395.636719 C 559.457031 398.082031 563.253906 399.429688 562.035156 401.910156 C 559.773438 407.9375 558.179688 403.648438 554.9375 404.003906 C 556.234375 405.382812 559.773438 405.457031 558.847656 407.867188 C 533.050781 411.941406 498.242188 392.375 469.652344 374.542969 C 455.238281 366.816406 444.265625 356.144531 432.230469 345.332031 C 415.988281 332.394531 395.417969 320.625 374.179688 312.078125 L 381.101562 300.734375 L 380.375 288.683594 C 381.042969 288.753906 381.671875 288.824219 382.320312 288.894531 L 375.300781 277.835938 Z M 373.867188 276.027344 C 386.332031 256.601562 401.847656 238.414062 417.582031 224.835938 C 430.382812 215.015625 442.847656 206.261719 453.25 193.429688 C 476.160156 168.542969 502 137.804688 503.335938 111.21875 C 501.253906 109.800781 500.484375 113.308594 498.832031 114.339844 C 499.148438 111.003906 503.613281 110.296875 498.28125 106.859375 C 496.121094 105.085938 494.035156 108.628906 491.046875 111.539062 C 492.757812 107.496094 495.472656 104.304688 492.03125 101.007812 C 488.195312 97.890625 484.300781 100.050781 482.039062 103.03125 C 481.746094 100.972656 483.535156 99.625 484.300781 97.429688 C 485.441406 95.054688 481.921875 92.183594 480.113281 93.847656 C 435.296875 134.046875 416.261719 146.066406 405.46875 206.402344 C 397.699219 227.496094 380.238281 250.929688 366.570312 264.574219 C 368.085938 245.183594 374.632812 216.257812 385.742188 196.546875 C 424.441406 149.539062 421.375 126.957031 423.085938 66.125 C 423.222656 63.644531 418.800781 62.6875 417.71875 65.167969 C 416.578125 67.1875 416.714844 69.421875 414.964844 70.523438 C 415.730469 66.835938 414.867188 62.4375 410.070312 61.445312 C 405.425781 60.808594 404.660156 64.957031 402.753906 68.890625 C 403.027344 64.671875 404.386719 60.808594 401.671875 60.242188 C 395.695312 58.253906 397.953125 62.191406 395.65625 64.601562 C 395.417969 62.722656 397.542969 59.816406 395.125 59.070312 C 375.929688 77.117188 369.246094 117.03125 365.035156 150.886719 C 361.96875 167.230469 363.285156 182.542969 364.054688 198.886719 C 363.875 219.910156 360.023438 243.695312 353.335938 265.851562 L 364.605469 267.199219 L 373.769531 276.097656 Z M 372.785156 313.921875 L 364.132812 322.644531 L 353.472656 323.917969 C 360.160156 346.113281 364.015625 369.863281 364.191406 390.851562 C 363.425781 407.191406 362.105469 422.542969 365.175781 438.886719 C 369.382812 472.707031 376.070312 512.621094 395.28125 530.632812 C 397.679688 529.921875 395.554688 527.015625 395.792969 525.136719 C 398.09375 527.476562 395.832031 531.445312 401.808594 529.496094 C 404.523438 528.894531 403.167969 525.03125 402.890625 520.8125 C 404.796875 524.746094 405.605469 528.929688 410.207031 528.292969 C 415.003906 527.296875 415.871094 522.867188 415.101562 519.179688 C 416.8125 520.28125 416.675781 522.550781 417.855469 524.570312 C 418.9375 526.980469 423.363281 526.023438 423.222656 523.578125 C 421.511719 462.742188 424.582031 440.164062 385.882812 393.191406 C 375.027344 373.90625 368.539062 345.828125 366.847656 326.472656 C 380.550781 339.945312 397.777344 362.417969 405.78125 382.910156 C 417.660156 443.035156 436.890625 454.695312 482.492188 494.082031 C 484.261719 495.675781 487.78125 492.769531 486.582031 490.394531 C 485.757812 488.199219 483.988281 486.886719 484.183594 484.863281 C 486.523438 487.769531 490.417969 489.792969 494.210938 486.601562 C 497.554688 483.304688 494.839844 480.113281 493.070312 476.109375 C 496.121094 478.945312 498.242188 482.453125 500.40625 480.683594 C 505.65625 477.101562 501.171875 476.460938 500.800781 473.203125 C 502.433594 474.160156 503.257812 477.667969 505.34375 476.214844 C 503.535156 449.625 477.085938 419.421875 453.742188 394.960938 C 443.125 382.34375 430.519531 373.796875 417.5 364.226562 C 401.496094 350.96875 385.703125 333.101562 372.902344 313.921875 Z M 351.132812 323.957031 C 344.429688 346.148438 340.59375 369.898438 340.398438 390.886719 C 341.164062 407.226562 342.480469 422.578125 339.453125 438.921875 C 335.246094 472.742188 328.558594 512.65625 309.3125 530.667969 C 306.945312 529.957031 309.066406 527.050781 308.789062 525.171875 C 306.527344 527.511719 308.789062 531.480469 302.804688 529.53125 C 300.089844 528.929688 301.414062 525.066406 301.691406 520.847656 C 299.777344 524.78125 299.046875 528.964844 294.382812 528.328125 C 289.578125 527.332031 288.710938 522.902344 289.511719 519.214844 C 287.769531 520.316406 287.910156 522.585938 286.726562 524.605469 C 285.679688 527.015625 281.261719 526.058594 281.367188 523.613281 C 283.140625 462.777344 280.042969 440.199219 318.785156 393.226562 C 329.601562 373.867188 336.109375 345.722656 337.820312 326.367188 C 324.074219 339.835938 306.734375 362.382812 298.734375 382.945312 C 286.828125 443.070312 267.621094 454.734375 222.03125 494.117188 C 220.183594 495.714844 216.703125 492.804688 217.921875 490.429688 C 218.757812 488.234375 220.53125 486.921875 220.289062 484.898438 C 217.992188 487.804688 214.058594 489.828125 210.300781 486.636719 C 206.890625 483.339844 209.640625 480.148438 211.449219 476.144531 C 208.386719 478.980469 206.230469 482.488281 204.109375 480.71875 C 198.851562 477.136719 203.308594 476.496094 203.6875 473.238281 C 202.089844 474.195312 201.183594 477.703125 199.128906 476.25 C 200.941406 449.660156 227.421875 419.460938 250.742188 394.996094 C 261.355469 382.378906 273.988281 373.832031 286.96875 364.261719 C 302.976562 351.003906 318.804688 333.136719 331.648438 313.957031 L 340.28125 322.679688 L 351.113281 323.957031 Z M 351.132812 265.78125 L 339.550781 267.164062 L 330.40625 275.992188 C 317.941406 256.566406 302.421875 238.378906 286.65625 224.800781 C 273.847656 214.980469 261.390625 206.226562 250.984375 193.390625 C 228.085938 168.507812 202.226562 137.769531 200.871094 111.183594 C 202.960938 109.765625 203.757812 113.273438 205.359375 114.300781 C 205.046875 110.96875 200.589844 110.261719 205.917969 106.824219 C 208.074219 105.050781 210.164062 108.59375 213.15625 111.503906 C 211.449219 107.460938 208.734375 104.269531 212.214844 100.972656 C 216.042969 97.855469 219.90625 100.015625 222.203125 102.992188 C 222.445312 100.9375 220.671875 99.589844 219.90625 97.394531 C 218.722656 95.019531 222.273438 92.144531 224.082031 93.8125 C 268.941406 134.011719 287.945312 146.03125 298.769531 206.367188 C 306.5625 227.636719 324.234375 251.246094 337.960938 264.824219 C 336.464844 245.433594 329.878906 216.328125 318.785156 196.476562 C 280.042969 149.46875 283.140625 126.886719 281.367188 66.054688 C 281.261719 63.574219 285.679688 62.617188 286.726562 65.097656 C 287.875 67.152344 287.734375 69.351562 289.511719 70.449219 C 288.710938 66.765625 289.578125 62.367188 294.382812 61.375 C 299.046875 60.738281 299.777344 64.886719 301.691406 68.820312 C 301.414062 64.601562 300.089844 60.738281 302.804688 60.171875 C 308.789062 58.21875 306.527344 62.121094 308.789062 64.53125 C 309.066406 62.652344 306.945312 59.746094 309.3125 59 C 328.597656 77.042969 335.265625 116.960938 339.453125 150.816406 C 342.519531 167.160156 341.164062 182.472656 340.398438 198.816406 C 340.59375 219.839844 344.429688 243.625 351.132812 265.78125 Z M 351.132812 265.78125 " fill-opacity="1" fill-rule="evenodd"/></g><path fill="#3b62ac" d="M 392.132812 311.304688 C 415.101562 341.402344 437.34375 372.3125 461.570312 401.027344 C 465.855469 406.808594 475.589844 412.585938 483.140625 417.761719 L 465.324219 410.988281 L 471.460938 429.636719 C 466.664062 421.414062 462.511719 413.082031 455.238281 406.878906 C 427.785156 381.921875 397.875 359.480469 368.851562 336.15625 C 364.230469 373.695312 358.566406 411.308594 355.773438 448.886719 C 354.832031 456.046875 357.664062 467.109375 359.394531 476.253906 L 351.488281 458.636719 L 342.855469 476.253906 C 345.195312 467.003906 348.007812 458.066406 347.242188 448.460938 C 345.117188 410.988281 339.550781 373.484375 335.246094 335.941406 C 305.902344 359.195312 275.871094 381.636719 247.820312 406.167969 C 242.183594 410.566406 236.511719 420.457031 231.394531 428.148438 L 238.042969 409.960938 L 219.664062 416.203125 C 227.738281 411.347656 235.988281 407.054688 242.078125 399.71875 C 266.890625 371.320312 288.433594 341.613281 311.613281 311.800781 C 274.757812 307.121094 237.9375 301.378906 201.082031 298.507812 C 194.019531 297.515625 183.160156 300.421875 174.179688 302.195312 L 191.511719 294.109375 L 174.214844 285.355469 C 183.261719 287.730469 192 290.601562 201.429688 289.785156 C 238.25 287.660156 273.574219 282.269531 310.117188 277.945312 C 287.496094 248.238281 265.5 217.820312 241.589844 189.425781 C 237.3125 183.683594 227.601562 177.90625 220.050781 172.695312 L 237.902344 179.464844 L 231.777344 160.78125 C 236.546875 169.042969 240.71875 177.371094 247.957031 183.578125 C 275.3125 208.390625 305.035156 230.761719 333.949219 253.980469 C 338.648438 216.296875 344.289062 178.542969 347.101562 140.789062 C 348.085938 133.59375 345.234375 122.53125 343.523438 113.386719 L 351.429688 131.039062 L 360.0625 113.421875 C 357.761719 122.671875 354.910156 131.570312 355.675781 141.214844 C 357.820312 178.648438 363.367188 216.15625 367.671875 253.589844 C 397.1875 230.230469 427.472656 207.613281 455.691406 182.9375 C 461.371094 178.578125 466.996094 168.652344 472.109375 160.960938 L 465.464844 179.109375 L 483.769531 172.871094 C 475.707031 177.726562 467.527344 181.980469 461.371094 189.355469 C 437.007812 217.253906 415.042969 247.566406 392.214844 276.988281 C 429.101562 281.703125 466.035156 287.480469 502.921875 290.316406 C 509.984375 291.308594 520.839844 288.402344 529.785156 286.632812 L 512.460938 294.714844 L 529.785156 303.503906 C 520.699219 301.128906 511.929688 298.222656 502.492188 299.039062 C 465.71875 301.203125 428.886719 306.875 392.113281 311.234375 Z M 344.820312 278.511719 C 344.820312 283.050781 344.644531 287.128906 344.820312 288.296875 C 343.699219 288.121094 339.984375 288.296875 335.597656 288.476562 C 338.6875 291.59375 341.339844 294.289062 342.207031 294.996094 C 341.222656 295.742188 338.195312 298.789062 334.851562 302.195312 C 339.691406 302.195312 343.9375 302.195312 345.15625 302.015625 C 344.980469 303.152344 344.980469 306.910156 344.980469 311.234375 C 348.007812 308.21875 350.722656 305.597656 351.429688 304.675781 C 352.15625 305.632812 355.085938 308.324219 358.429688 311.484375 C 358.449219 307.15625 358.585938 303.398438 358.429688 302.265625 C 359.628906 302.40625 363.601562 302.265625 368.164062 302.050781 C 364.917969 298.71875 362.105469 295.777344 361.164062 295.03125 C 362.066406 294.324219 364.546875 291.558594 367.496094 288.296875 C 363.285156 288.296875 359.707031 288.261719 358.585938 288.367188 C 358.765625 287.128906 358.585938 282.875 358.429688 278.050781 C 355.144531 281.242188 352.253906 284.042969 351.527344 285 C 350.839844 284.078125 348.085938 281.488281 344.882812 278.476562 Z M 344.820312 278.511719 " fill-opacity="1" fill-rule="evenodd"/></svg>