<svg xmlns="http://www.w3.org/2000/svg" xmlns:xlink="http://www.w3.org/1999/xlink" width="940" zoomAndPan="magnify" viewBox="0 0 705 591.000005" height="788" preserveAspectRatio="xMidYMid meet" version="1.0"><defs><clipPath id="df1327d45d"><path d="M 271 213.515625 L 433.953125 213.515625 L 433.953125 376.738281 L 271 376.738281 Z M 271 213.515625 " clip-rule="nonzero"/></clipPath></defs><g clip-path="url(#df1327d45d)"><path fill="#3b62ac" d="M 342.667969 292.992188 C 342.472656 293.003906 342.28125 293.027344 342.078125 293.054688 L 344.5 289.238281 C 337.234375 286.144531 330.203125 281.9375 324.664062 277.351562 C 320.578125 273.523438 316.863281 269.769531 311.9375 266.996094 C 302.167969 260.667969 290.28125 253.652344 281.351562 254.890625 C 281.015625 255.710938 282.242188 255.75 282.664062 256.25 C 281.558594 256.363281 281.015625 254.867188 280.210938 256.925781 C 279.765625 257.785156 281.078125 258.289062 282.242188 259.132812 C 280.789062 258.792969 279.539062 258.078125 278.671875 259.464844 C 277.878906 260.988281 278.828125 262.203125 279.96875 262.789062 C 279.308594 263.011719 278.746094 262.496094 277.964844 262.347656 C 277.097656 262.101562 276.367188 263.527344 277.027344 264.027344 C 293.285156 276.996094 298.511719 282.820312 319.292969 282.699219 C 327.222656 284.109375 336.691406 289.089844 341.984375 293.054688 C 334.375 293.910156 326.492188 293.738281 319.675781 292.539062 C 314.28125 291.25 309.246094 289.839844 303.609375 289.886719 C 292.046875 289.261719 278.324219 289.078125 271.125 294.636719 C 271.222656 295.519531 272.316406 294.941406 272.941406 295.164062 C 272.015625 295.8125 270.824219 294.769531 271.113281 296.976562 C 271.136719 297.960938 272.519531 297.726562 273.949219 297.886719 C 272.507812 298.316406 271.089844 298.316406 271.007812 299.972656 C 271.042969 301.6875 272.460938 302.265625 273.734375 302.214844 C 273.253906 302.742188 272.507812 302.558594 271.761719 302.839844 C 270.886719 303.074219 270.933594 304.65625 271.761719 304.765625 C 292.15625 307.957031 299.511719 310.410156 317.574219 299.910156 C 325.046875 297.222656 335.480469 296.792969 342.015625 297.554688 C 336.574219 301.359375 327.355469 305.910156 319.628906 307.136719 C 298.851562 306.632812 293.527344 312.347656 277.039062 325.007812 C 276.367188 325.5 277.050781 326.921875 277.929688 326.699219 C 278.722656 326.578125 279.273438 326.0625 279.933594 326.296875 C 278.804688 326.871094 277.820312 328.0625 278.578125 329.597656 C 279.417969 331.019531 280.679688 330.320312 282.144531 330 C 280.957031 330.847656 279.648438 331.3125 280.078125 332.171875 C 280.847656 334.257812 281.414062 332.773438 282.519531 332.894531 C 282.074219 333.375 280.859375 333.398438 281.171875 334.234375 C 290.101562 335.644531 302.121094 328.871094 311.972656 322.703125 C 316.960938 320.027344 320.734375 316.335938 324.890625 312.59375 C 330.515625 308.117188 337.617188 304.042969 344.949219 301.085938 L 342.558594 297.160156 L 342.402344 297.273438 Z M 360.519531 289.238281 C 367.792969 286.144531 374.835938 281.9375 380.363281 277.351562 C 384.449219 273.523438 388.164062 269.769531 393.101562 266.996094 C 402.859375 260.667969 414.75 253.652344 423.675781 254.890625 C 424.023438 255.710938 422.789062 255.75 422.367188 256.25 C 423.480469 256.363281 424.011719 254.867188 424.816406 256.925781 C 425.257812 257.785156 423.960938 258.289062 422.789062 259.132812 C 424.242188 258.792969 425.503906 258.078125 426.351562 259.464844 C 427.148438 260.988281 426.195312 262.203125 425.054688 262.789062 C 425.726562 263.011719 426.285156 262.496094 427.066406 262.347656 C 427.957031 262.101562 428.660156 263.527344 428.003906 264.027344 C 411.738281 276.996094 406.523438 282.820312 385.734375 282.699219 C 377.800781 284.121094 368.324219 289.089844 363.03125 293.066406 C 370.617188 293.898438 378.480469 293.738281 385.265625 292.539062 C 390.664062 291.25 395.699219 289.839844 401.335938 289.886719 C 412.894531 289.261719 426.609375 289.078125 433.808594 294.636719 C 433.71875 295.519531 432.640625 294.953125 432.003906 295.164062 C 432.925781 295.8125 434.121094 294.769531 433.828125 296.976562 C 433.808594 297.960938 432.421875 297.726562 431.003906 297.886719 C 432.4375 298.316406 433.863281 298.316406 433.964844 299.972656 C 433.925781 301.6875 432.503906 302.265625 431.222656 302.214844 C 431.71875 302.742188 432.4375 302.558594 433.183594 302.839844 C 434.058594 303.074219 434.03125 304.65625 433.183594 304.765625 C 412.785156 307.957031 405.445312 310.410156 387.371094 299.910156 C 379.953125 297.234375 369.597656 296.792969 363.046875 297.542969 C 368.492188 301.34375 377.71875 305.910156 385.449219 307.136719 C 406.226562 306.632812 411.5625 312.347656 428.050781 325.007812 C 428.722656 325.5 428.023438 326.921875 427.132812 326.699219 C 426.351562 326.578125 425.789062 326.0625 425.128906 326.296875 C 426.285156 326.871094 427.242188 328.0625 426.488281 329.597656 C 425.660156 331.019531 424.382812 330.320312 422.917969 330 C 424.105469 330.847656 425.414062 331.3125 424.996094 332.171875 C 424.214844 334.257812 423.664062 332.773438 422.542969 332.894531 C 422.992188 333.375 424.214844 333.398438 423.894531 334.234375 C 414.984375 335.644531 402.96875 328.871094 393.09375 322.703125 C 388.117188 320.027344 384.328125 316.335938 380.171875 312.59375 C 374.5625 308.117188 367.460938 304.042969 360.125 301.085938 L 362.515625 297.160156 L 362.265625 292.992188 C 362.496094 293.015625 362.714844 293.039062 362.9375 293.066406 L 360.511719 289.238281 Z M 360.019531 288.613281 C 364.324219 281.890625 369.679688 275.597656 375.113281 270.898438 C 379.535156 267.5 383.839844 264.472656 387.429688 260.03125 C 395.339844 251.417969 404.265625 240.785156 404.726562 231.582031 C 404.003906 231.09375 403.742188 232.308594 403.171875 232.664062 C 403.277344 231.507812 404.820312 231.265625 402.980469 230.074219 C 402.234375 229.460938 401.515625 230.6875 400.480469 231.695312 C 401.074219 230.296875 402.007812 229.191406 400.820312 228.050781 C 399.496094 226.972656 398.152344 227.71875 397.371094 228.75 C 397.269531 228.039062 397.886719 227.570312 398.152344 226.8125 C 398.546875 225.988281 397.332031 224.996094 396.707031 225.570312 C 381.230469 239.484375 374.65625 243.640625 370.929688 264.519531 C 368.246094 271.820312 362.21875 279.925781 357.5 284.648438 C 358.023438 277.941406 360.28125 267.929688 364.121094 261.109375 C 377.484375 244.84375 376.421875 237.03125 377.015625 215.980469 C 377.0625 215.121094 375.535156 214.789062 375.160156 215.648438 C 374.765625 216.347656 374.8125 217.121094 374.210938 217.5 C 374.472656 216.226562 374.175781 214.703125 372.519531 214.359375 C 370.917969 214.140625 370.652344 215.574219 369.992188 216.9375 C 370.089844 215.476562 370.554688 214.140625 369.621094 213.941406 C 367.554688 213.257812 368.335938 214.617188 367.542969 215.453125 C 367.460938 214.800781 368.195312 213.796875 367.359375 213.539062 C 360.730469 219.78125 358.421875 233.59375 356.96875 245.308594 C 355.910156 250.964844 356.363281 256.265625 356.628906 261.917969 C 356.566406 269.195312 355.238281 277.425781 352.929688 285.089844 L 356.820312 285.558594 L 359.984375 288.636719 Z M 359.644531 301.726562 L 356.65625 304.742188 L 352.976562 305.183594 C 355.285156 312.863281 356.617188 321.082031 356.675781 328.34375 C 356.414062 334 355.957031 339.3125 357.015625 344.964844 C 358.46875 356.667969 360.777344 370.480469 367.414062 376.714844 C 368.242188 376.46875 367.507812 375.460938 367.589844 374.8125 C 368.382812 375.621094 367.601562 376.996094 369.667969 376.320312 C 370.605469 376.113281 370.136719 374.773438 370.039062 373.316406 C 370.699219 374.675781 370.976562 376.125 372.566406 375.902344 C 374.222656 375.558594 374.523438 374.027344 374.257812 372.75 C 374.847656 373.132812 374.800781 373.917969 375.207031 374.617188 C 375.582031 375.449219 377.109375 375.117188 377.0625 374.273438 C 376.472656 353.222656 377.53125 345.410156 364.167969 329.15625 C 360.417969 322.480469 358.175781 312.765625 357.59375 306.066406 C 362.328125 310.730469 368.273438 318.507812 371.039062 325.597656 C 375.140625 346.402344 381.78125 350.4375 397.527344 364.066406 C 398.140625 364.617188 399.355469 363.613281 398.941406 362.789062 C 398.65625 362.03125 398.042969 361.574219 398.113281 360.875 C 398.917969 361.882812 400.265625 362.582031 401.574219 361.476562 C 402.730469 360.335938 401.792969 359.234375 401.179688 357.847656 C 402.234375 358.828125 402.96875 360.042969 403.714844 359.429688 C 405.527344 358.191406 403.980469 357.96875 403.847656 356.839844 C 404.414062 357.171875 404.699219 358.386719 405.417969 357.882812 C 404.792969 348.683594 395.660156 338.230469 387.601562 329.765625 C 383.933594 325.402344 379.582031 322.445312 375.085938 319.132812 C 369.558594 314.542969 364.105469 308.363281 359.683594 301.726562 Z M 352.167969 305.195312 C 349.851562 312.875 348.527344 321.09375 348.460938 328.355469 C 348.726562 334.011719 349.179688 339.324219 348.132812 344.976562 C 346.679688 356.679688 344.371094 370.492188 337.726562 376.726562 C 336.910156 376.480469 337.640625 375.472656 337.546875 374.824219 C 336.765625 375.632812 337.546875 377.007812 335.480469 376.332031 C 334.542969 376.125 335 374.789062 335.09375 373.328125 C 334.433594 374.6875 334.179688 376.136719 332.570312 375.917969 C 330.914062 375.570312 330.613281 374.039062 330.886719 372.761719 C 330.289062 373.144531 330.335938 373.929688 329.925781 374.628906 C 329.566406 375.460938 328.039062 375.128906 328.078125 374.285156 C 328.6875 353.234375 327.621094 345.421875 341 329.167969 C 344.734375 322.46875 346.980469 312.730469 347.570312 306.03125 C 342.824219 310.691406 336.835938 318.492188 334.074219 325.609375 C 329.964844 346.414062 323.328125 350.449219 307.585938 364.078125 C 306.949219 364.628906 305.746094 363.625 306.167969 362.800781 C 306.457031 362.042969 307.070312 361.585938 306.984375 360.890625 C 306.191406 361.894531 304.835938 362.59375 303.535156 361.488281 C 302.359375 360.347656 303.308594 359.246094 303.933594 357.859375 C 302.875 358.839844 302.128906 360.054688 301.398438 359.441406 C 299.582031 358.203125 301.121094 357.980469 301.253906 356.851562 C 300.699219 357.183594 300.386719 358.398438 299.679688 357.894531 C 300.304688 348.695312 309.449219 338.242188 317.5 329.78125 C 321.167969 325.414062 325.527344 322.457031 330.011719 319.144531 C 335.539062 314.558594 341.003906 308.375 345.4375 301.738281 L 348.421875 304.753906 L 352.160156 305.195312 Z M 352.167969 285.066406 L 348.167969 285.546875 L 345.011719 288.597656 C 340.707031 281.878906 335.347656 275.585938 329.902344 270.886719 C 325.480469 267.488281 321.179688 264.457031 317.585938 260.019531 C 309.675781 251.40625 300.75 240.769531 300.28125 231.570312 C 301 231.082031 301.277344 232.292969 301.832031 232.648438 C 301.722656 231.496094 300.183594 231.25 302.023438 230.0625 C 302.769531 229.449219 303.488281 230.675781 304.523438 231.679688 C 303.933594 230.28125 302.996094 229.179688 304.199219 228.039062 C 305.519531 226.957031 306.851562 227.707031 307.648438 228.738281 C 307.730469 228.027344 307.117188 227.558594 306.851562 226.800781 C 306.445312 225.976562 307.671875 224.984375 308.296875 225.558594 C 323.785156 239.46875 330.347656 243.628906 334.085938 264.507812 C 336.777344 271.867188 342.878906 280.039062 347.617188 284.734375 C 347.101562 278.027344 344.828125 267.953125 341 261.085938 C 327.621094 244.820312 328.6875 237.003906 328.078125 215.953125 C 328.039062 215.097656 329.566406 214.765625 329.925781 215.625 C 330.324219 216.335938 330.277344 217.097656 330.886719 217.476562 C 330.613281 216.199219 330.914062 214.679688 332.570312 214.335938 C 334.179688 214.113281 334.433594 215.550781 335.09375 216.910156 C 335 215.453125 334.542969 214.113281 335.480469 213.917969 C 337.546875 213.242188 336.765625 214.59375 337.546875 215.425781 C 337.640625 214.777344 336.910156 213.773438 337.726562 213.515625 C 344.386719 219.757812 346.6875 233.570312 348.132812 245.285156 C 349.195312 250.941406 348.726562 256.238281 348.460938 261.894531 C 348.527344 269.167969 349.851562 277.398438 352.167969 285.066406 Z M 352.167969 285.066406 " fill-opacity="1" fill-rule="evenodd"/></g><path fill="#3b62ac" d="M 366.324219 300.820312 C 374.257812 311.234375 381.9375 321.929688 390.304688 331.867188 C 391.78125 333.867188 395.144531 335.867188 397.75 337.65625 L 391.601562 335.3125 L 393.71875 341.765625 C 392.0625 338.921875 390.628906 336.039062 388.117188 333.890625 C 378.636719 325.253906 368.308594 317.488281 358.285156 309.417969 C 356.691406 322.410156 354.734375 335.425781 353.769531 348.425781 C 353.445312 350.90625 354.421875 354.734375 355.019531 357.898438 L 352.289062 351.800781 L 349.308594 357.898438 C 350.117188 354.695312 351.089844 351.605469 350.824219 348.28125 C 350.089844 335.3125 348.167969 322.335938 346.679688 309.34375 C 336.550781 317.390625 326.179688 325.15625 316.492188 333.644531 C 314.546875 335.167969 312.585938 338.589844 310.820312 341.25 L 313.117188 334.957031 L 306.769531 337.117188 C 309.558594 335.4375 312.40625 333.953125 314.507812 331.414062 C 323.078125 321.585938 330.515625 311.308594 338.519531 300.992188 C 325.792969 299.371094 313.078125 297.382812 300.351562 296.390625 C 297.914062 296.046875 294.164062 297.054688 291.0625 297.667969 L 297.050781 294.871094 L 291.074219 291.839844 C 294.199219 292.660156 297.214844 293.65625 300.472656 293.375 C 313.1875 292.636719 325.386719 290.773438 338.003906 289.277344 C 330.191406 278.996094 322.597656 268.472656 314.34375 258.644531 C 312.863281 256.65625 309.511719 254.660156 306.902344 252.855469 L 313.066406 255.199219 L 310.953125 248.734375 C 312.597656 251.59375 314.042969 254.476562 316.539062 256.621094 C 325.988281 265.207031 336.25 272.949219 346.234375 280.984375 C 347.855469 267.945312 349.804688 254.878906 350.777344 241.816406 C 351.117188 239.324219 350.132812 235.496094 349.539062 232.332031 L 352.269531 238.441406 L 355.25 232.34375 C 354.457031 235.546875 353.472656 238.625 353.738281 241.960938 C 354.476562 254.917969 356.390625 267.894531 357.878906 280.847656 C 368.070312 272.765625 378.527344 264.9375 388.273438 256.402344 C 390.234375 254.890625 392.175781 251.457031 393.941406 248.796875 L 391.648438 255.074219 L 397.96875 252.917969 C 395.183594 254.597656 392.359375 256.070312 390.234375 258.621094 C 381.820312 268.273438 374.238281 278.761719 366.351562 288.945312 C 379.09375 290.574219 391.84375 292.574219 404.582031 293.558594 C 407.019531 293.898438 410.769531 292.894531 413.859375 292.28125 L 407.875 295.078125 L 413.859375 298.121094 C 410.722656 297.296875 407.691406 296.292969 404.433594 296.574219 C 391.734375 297.324219 379.015625 299.285156 366.320312 300.792969 Z M 349.988281 289.472656 C 349.988281 291.042969 349.925781 292.453125 349.988281 292.859375 C 349.601562 292.796875 348.316406 292.859375 346.804688 292.917969 C 347.871094 294 348.785156 294.929688 349.085938 295.175781 C 348.746094 295.433594 347.699219 296.488281 346.546875 297.667969 C 348.214844 297.667969 349.683594 297.667969 350.105469 297.605469 C 350.042969 297.996094 350.042969 299.296875 350.042969 300.792969 C 351.089844 299.75 352.027344 298.84375 352.269531 298.523438 C 352.519531 298.855469 353.53125 299.789062 354.6875 300.878906 C 354.695312 299.382812 354.742188 298.082031 354.6875 297.691406 C 355.101562 297.738281 356.472656 297.691406 358.046875 297.617188 C 356.929688 296.464844 355.957031 295.445312 355.632812 295.1875 C 355.945312 294.945312 356.800781 293.988281 357.816406 292.859375 C 356.363281 292.859375 355.128906 292.84375 354.742188 292.882812 C 354.804688 292.453125 354.742188 290.980469 354.6875 289.3125 C 353.554688 290.417969 352.554688 291.386719 352.304688 291.71875 C 352.066406 291.398438 351.117188 290.503906 350.007812 289.460938 Z M 349.988281 289.472656 " fill-opacity="1" fill-rule="evenodd"/></svg>